Coordinates
version=1
nRows=80
nColumns=8
inDegrees=yes

Units are S.I. units (second, meters, Newtons, ...)
If the header above contains a line with 'inDegrees', this indicates whether rotational values are in degrees (yes) or radians (no).

endheader
time	bJoint_3	bJoint_4	seatpos	hipangle	kneeangle	footangle	lbackangle
      0.02000000	     -0.00000000	     -0.00000025	     -0.64352497	     24.15596460	    143.36714144	     77.52310603	     11.45778527
      0.04000000	     -0.00000000	     -0.00000025	     -0.57228636	     27.94806850	    134.15792798	     72.10599648	     11.39684215
      0.06000000	     -0.00000000	     -0.00000025	     -0.52853594	     30.55126307	    128.31114386	     68.86240693	     11.45690915
      0.08000000	      0.00000000	     -0.00000025	     -0.48529179	     33.29567751	    122.36813478	     65.66381229	     11.39640719
      0.10000000	     -0.00000000	     -0.00000025	     -0.44154027	     36.23717005	    116.16337175	     62.40054180	     11.45654163
      0.12000000	     -0.00000000	     -0.00000025	     -0.39929531	     39.23774542	    109.95632765	     59.19407307	     11.39609436
      0.14000000	      0.00000000	     -0.00000025	     -0.35754432	     42.37006522	    103.57268576	     55.94275098	     11.45626949
      0.16000000	     -0.00000000	     -0.00000025	     -0.31729937	     45.56613539	     97.13570925	     52.70184464	     11.39580661
      0.18000000	      0.00000000	     -0.00000025	     -0.27927565	     48.77156787	     90.74093625	     49.51250412	      9.12225153
      0.20000000	     -0.00000000	     -0.00000025	     -0.24212560	     52.11262803	     84.12840076	     46.24102879	      6.80855458
      0.22000000	      0.00000000	     -0.00000025	     -0.20720328	     55.48595125	     77.49774155	     42.98369281	      4.58721472
      0.24000000	     -0.00000000	     -0.00000025	     -0.17504352	     58.84485015	     70.93471284	     39.77956299	      2.24307083
      0.26000000	      0.00000000	     -0.00000025	     -0.14497428	     62.27000481	     64.27793743	     36.54794225	     -0.08844195
      0.28000000	      0.00000000	     -0.00000025	     -0.11702439	     65.78459818	     57.48137850	     33.26597667	     -2.32637851
      0.30000000	      0.00000000	     -0.00000025	     -0.09203629	     69.30276187	     50.71005030	     30.01281217	     -4.63212507
      0.32000000	      0.00000000	     -0.00000025	     -0.07007530	     72.82157403	     43.96811333	     26.78968737	     -6.92870675
      0.34000000	      0.00000000	     -0.00000025	     -0.05112917	     76.35035096	     37.23704814	     23.58739910	     -9.21815798
      0.36000000	      0.00000000	     -0.00000025	     -0.03519356	     79.90241749	     30.49164648	     20.39406397	    -11.59086217
      0.38000000	      0.00000000	     -0.00000025	     -0.02227534	     83.49954387	     23.69175412	     17.19129799	    -13.87540382
      0.40000000	      0.00000000	     -0.00000025	     -0.01242353	     87.17519971	     16.77656185	     13.95176156	    -16.16675595
      0.42000000	      0.00000000	     -0.00000025	     -0.00674632	     90.26884467	     10.98328569	     11.25213037	    -18.56445330
      0.44000000	      0.00000000	     -0.00000025	     -0.00455970	     92.04612713	      7.66665528	      9.71278241	    -20.93717864
      0.46000000	      0.00000001	     -0.00000025	     -0.00395796	     92.69254901	      6.46250614	      9.15505514	    -23.18801868
      0.48000000	      0.00000001	     -0.00000025	     -0.00385116	     92.82038169	      6.22451853	      9.04490021	    -25.49504375
      0.50000000	      0.00000000	     -0.00000025	     -0.00396226	     92.68750952	      6.47188914	      9.15939867	    -27.77554443
      0.52000000	      0.00000001	     -0.00000025	     -0.00378415	     92.90315465	      6.07044356	      8.97359820	    -30.11580626
      0.54000000	      0.00000000	     -0.00000025	     -0.00395895	     92.69139053	      6.46466310	      9.15605363	    -32.37217389
      0.56000000	      0.00000001	     -0.00000025	     -0.00377233	     92.91798130	      6.04284701	      8.96082831	    -34.68152762
      0.58000000	      0.00000001	     -0.00000025	     -0.00391390	     92.74470244	      6.36540595	      9.11010839	    -37.00264100
      0.60000000	      0.00000001	     -0.00000025	     -0.00373657	     92.96323399	      5.95862291	      8.92185690	    -39.29844047
      0.62000000	      0.00000001	     -0.00000025	     -0.00382452	     92.85303992	      6.16372564	      9.01676557	    -40.20564058
      0.64000000	      0.00000001	     -0.00000025	     -0.00382458	     92.85296463	      6.16386580	      9.01683043	    -40.20564384
      0.66000000	      0.00000001	     -0.00000025	     -0.00382452	     92.85304625	      6.16371386	      9.01676012	    -40.20564025
      0.68000000	      0.00000001	     -0.00000025	     -0.00382455	     92.85301004	      6.16378127	      9.01679131	    -40.20563775
      0.70000000	      0.00000001	     -0.00000025	     -0.00382457	     92.85297995	      6.16383729	      9.01681724	    -40.20563689
      0.72000000	      0.00000001	     -0.00000025	     -0.00382452	     92.85303887	      6.16372761	      9.01676648	    -40.20564055
      0.74000000	      0.00000001	     -0.00000025	     -0.00382451	     92.85305355	      6.16370027	      9.01675382	    -40.20563911
      0.76000000	      0.00000001	     -0.00000025	     -0.00382454	     92.85302112	      6.16376064	      9.01678176	    -40.20563817
      0.78000000	      0.00000001	     -0.00000025	     -0.00382452	     92.85304340	      6.16371917	      9.01676257	    -40.20564036
      0.80000000	      0.00000001	     -0.00000025	     -0.00382447	     92.85310430	      6.16360580	      9.01671010	    -40.20563610
      0.82000000	      0.00000001	     -0.00000025	     -0.00426894	     92.34472500	      7.11028528	      9.45501028	    -40.23999359
      0.84000000	      0.00000001	     -0.00000025	     -0.00382452	     92.85303897	      6.16372743	      9.01676639	    -40.20564055
      0.86000000	      0.00000001	     -0.00000025	     -0.00382450	     92.85307148	      6.16366690	      9.01673838	    -40.20563848
      0.88000000	      0.00000001	     -0.00000025	     -0.00382452	     92.85303958	      6.16372628	      9.01676586	    -40.20564055
      0.90000000	      0.00000001	     -0.00000025	     -0.00382451	     92.85305958	      6.16368905	      9.01674863	    -40.20564063
      0.92000000	      0.00000001	     -0.00000025	     -0.00382452	     92.85303809	      6.16372905	      9.01676715	    -40.20564064
      0.94000000	      0.00000001	     -0.00000025	     -0.00382452	     92.85303935	      6.16372671	      9.01676606	    -40.20564024
      0.96000000	      0.00000001	     -0.00000025	     -0.00382443	     92.85315004	      6.16352068	      9.01667071	    -40.20562938
      0.98000000	      0.00000001	     -0.00000025	     -0.00382452	     92.85303931	      6.16372678	      9.01676610	    -40.20563884
      1.00000000	      0.00000001	     -0.00000025	     -0.00382450	     92.85306991	      6.16366984	      9.01673974	    -40.20563269
      1.02000000	      0.00000001	     -0.00000025	     -0.00387313	     92.79368903	      6.27420879	      9.06789782	    -39.42676784
      1.04000000	      0.00000001	     -0.00000025	     -0.00385079	     92.82083362	      6.22367725	      9.04451086	    -37.85946397
      1.06000000	      0.00000001	     -0.00000025	     -0.00369496	     93.01671117	      5.85909884	      8.87581001	    -36.28305466
      1.08000000	      0.00000001	     -0.00000025	     -0.00367373	     93.04435974	      5.80764643	      8.85200617	    -34.75443128
      1.10000000	      0.00000000	     -0.00000025	     -0.00442462	     92.18205427	      7.41335495	      9.59540922	    -33.15827000
      1.12000000	      0.00000000	     -0.00000025	     -0.00520018	     91.45505019	      8.76872065	     10.22377084	    -31.56165566
      1.14000000	      0.00000000	     -0.00000025	     -0.00746811	     89.79076086	     11.87690997	     11.66767082	    -30.00612523
      1.16000000	      0.00000000	     -0.00000025	     -0.01036021	     88.15870674	     14.93208607	     13.09079282	    -28.44631847
      1.18000000	      0.00000000	     -0.00000025	     -0.01323798	     86.81570487	     17.45138480	     14.26708968	    -26.80088831
      1.20000000	      0.00000000	     -0.00000025	     -0.01821688	     84.86637400	     21.11629469	     15.98266869	    -25.27047039
      1.22000000	      0.00000000	     -0.00000025	     -0.02312830	     83.23082249	     24.19864041	     17.42946290	    -23.64892252
      1.24000000	      0.00000000	     -0.00000025	     -0.02915800	     81.47199387	     27.52068717	     18.99268104	    -22.14047559
      1.26000000	      0.00000000	     -0.00000025	     -0.03609858	     79.68004456	     30.91304529	     20.59308985	    -20.53805039
      1.28000000	      0.00000000	     -0.00000025	     -0.04317141	     78.03647912	     34.03130690	     22.06778602	    -18.95912111
      1.30000000	      0.00000000	     -0.00000025	     -0.05211104	     76.15218251	     37.61426106	     23.76644356	    -17.45543310
      1.32000000	      0.00000000	     -0.00000025	     -0.06115730	     74.41124183	     40.93216812	     25.34340994	    -15.88134075
      1.34000000	      0.00000000	     -0.00000025	     -0.07013534	     72.81123691	     43.98787501	     26.79911192	    -14.30078820
      1.36000000	      0.00000000	     -0.00000025	     -0.08113691	     70.98820582	     47.47703207	     28.46523789	    -12.81233513
      1.38000000	      0.00000000	     -0.00000025	     -0.09212006	     69.29021274	     50.73414820	     30.02436094	    -11.23409742
      1.40000000	      0.00000000	     -0.00000025	     -0.10316907	     67.68264316	     53.82437679	     31.50701995	     -9.57593859
      1.42000000	      0.00000000	     -0.00000025	     -0.11604968	     65.91431575	     57.23115499	     33.14547074	     -8.06887700
      1.44000000	      0.00000000	     -0.00000025	     -0.12912214	     64.21729088	     60.50816994	     34.72546081	     -6.58412010
      1.46000000	      0.00000000	     -0.00000025	     -0.14217317	     62.60614602	     63.62645766	     36.23260368	     -4.91599620
      1.48000000	      0.00000000	     -0.00000025	     -0.15606816	     60.96909385	     66.80224062	     37.77133447	     -3.30940083
      1.50000000	      0.00000000	     -0.00000025	     -0.17104023	     59.28326895	     70.08071552	     39.36398447	     -1.79497395
      1.52000000	      0.00000000	     -0.00000025	     -0.18626543	     57.64123419	     73.28229552	     40.92352971	     -0.21746197
      1.54000000	      0.00000000	     -0.00000025	     -0.20224042	     55.98691971	     76.51652854	     42.50344825	      1.31316469
      1.56000000	      0.00000000	     -0.00000025	     -0.21897749	     54.32006529	     79.78467622	     44.10474151	      2.88621142
      1.58000000	      0.00000000	     -0.00000025	     -0.23591231	     52.69480643	     82.98098839	     45.67579482	      4.44400242
      1.60000000	      0.00000000	     -0.00000025	     -0.25309417	     51.10208950	     86.12332513	     47.22541463	      5.98051780
